<svg xmlns="http://www.w3.org/2000/svg" xmlns:xlink="http://www.w3.org/1999/xlink" width="575" zoomAndPan="magnify" viewBox="0 0 431.25 776.249999" height="1035" preserveAspectRatio="xMidYMid meet" version="1.0"><defs><g/><clipPath id="f5f94c0535"><rect x="0" width="226" y="0" height="388"/></clipPath><clipPath id="02b60fb8ae"><rect x="0" width="210" y="0" height="389"/></clipPath></defs><g transform="matrix(1, 0, 0, 1, 77, 116)"><g clip-path="url(#f5f94c0535)"><g fill="#e4cba9" fill-opacity="1"><g transform="translate(0.701102, 299.028653)"><g><path d="M 143.359375 -271.5625 C 156.046875 -271.5625 167.632812 -268.453125 178.125 -262.234375 C 188.613281 -256.015625 196.96875 -247.722656 203.1875 -237.359375 C 209.40625 -227.003906 212.515625 -215.484375 212.515625 -202.796875 C 212.515625 -190.109375 209.40625 -178.519531 203.1875 -168.03125 C 196.96875 -157.539062 188.613281 -149.1875 178.125 -142.96875 C 167.632812 -136.75 156.046875 -133.640625 143.359375 -133.640625 C 142.578125 -133.640625 142.1875 -134.160156 142.1875 -135.203125 C 142.1875 -135.972656 142.578125 -136.359375 143.359375 -136.359375 C 148.015625 -136.359375 152.21875 -139.398438 155.96875 -145.484375 C 159.726562 -151.578125 162.773438 -159.671875 165.109375 -169.765625 C 167.441406 -179.867188 168.609375 -190.878906 168.609375 -202.796875 C 168.609375 -214.710938 167.441406 -225.71875 165.109375 -235.8125 C 162.773438 -245.914062 159.726562 -253.945312 155.96875 -259.90625 C 152.21875 -265.863281 148.015625 -268.84375 143.359375 -268.84375 L 77.3125 -268.84375 L 77.3125 -17.484375 C 77.3125 -13.078125 78.863281 -9.253906 81.96875 -6.015625 C 85.082031 -2.785156 88.835938 -1.171875 93.234375 -1.171875 C 94.273438 -1.171875 94.796875 -0.78125 94.796875 0 C 94.796875 1.03125 94.273438 1.546875 93.234375 1.546875 L 17.484375 1.546875 C 16.703125 1.546875 16.3125 1.03125 16.3125 0 C 16.3125 -0.78125 16.703125 -1.171875 17.484375 -1.171875 C 22.140625 -1.171875 26.019531 -2.785156 29.125 -6.015625 C 32.238281 -9.253906 33.796875 -13.078125 33.796875 -17.484375 L 33.796875 -252.90625 C 33.796875 -257.3125 32.238281 -261.066406 29.125 -264.171875 C 26.019531 -267.285156 22.140625 -268.84375 17.484375 -268.84375 C 16.703125 -268.84375 16.3125 -269.359375 16.3125 -270.390625 C 16.3125 -271.171875 16.703125 -271.5625 17.484375 -271.5625 Z M 143.359375 -271.5625 "/></g></g></g></g></g><g transform="matrix(1, 0, 0, 1, 144, 269)"><g clip-path="url(#02b60fb8ae)"><g fill="#ea8913" fill-opacity="1"><g transform="translate(0.600717, 299.24191)"><g><path d="M 152.296875 -129.765625 C 163.953125 -122.765625 173.082031 -113.828125 179.6875 -102.953125 C 186.289062 -92.078125 189.59375 -80.289062 189.59375 -67.59375 C 189.59375 -47.394531 181.429688 -30.046875 165.109375 -15.546875 C 149.054688 -1.035156 129.503906 6.476562 106.453125 7 C 105.929688 7 105.28125 7 104.5 7 C 88.707031 7 74.078125 3.367188 60.609375 -3.890625 C 60.609375 -3.890625 60.21875 -4.144531 59.4375 -4.65625 L 58.65625 -5.046875 C 53.21875 -7.898438 47.457031 -10.554688 41.375 -13.015625 C 35.289062 -15.472656 30.5625 -15.664062 27.1875 -13.59375 C 24.082031 -11.78125 22.53125 -7.25 22.53125 0 C 22.53125 0.78125 22.015625 1.171875 20.984375 1.171875 C 20.203125 1.171875 19.8125 0.78125 19.8125 0 L 19.8125 -67.59375 C 19.8125 -68.632812 20.203125 -69.15625 20.984375 -69.15625 C 22.015625 -69.15625 22.53125 -68.632812 22.53125 -67.59375 C 22.53125 -55.425781 25.832031 -44.03125 32.4375 -33.40625 C 39.039062 -22.789062 48.300781 -14.113281 60.21875 -7.375 L 60.609375 -7 C 61.378906 -6.476562 61.765625 -6.21875 61.765625 -6.21875 C 74.972656 0.78125 89.21875 4.28125 104.5 4.28125 C 105.539062 4.28125 106.191406 4.28125 106.453125 4.28125 C 116.804688 4.019531 126.253906 1.625 134.796875 -2.90625 C 143.347656 -7.445312 150.082031 -13.535156 155 -21.171875 C 159.925781 -28.816406 162.390625 -37.171875 162.390625 -46.234375 C 162.390625 -54.773438 160.054688 -62.800781 155.390625 -70.3125 C 150.734375 -77.820312 144.390625 -83.910156 136.359375 -88.578125 L 55.9375 -145.6875 C 45.320312 -152.414062 37.035156 -161.023438 31.078125 -171.515625 C 25.117188 -182.003906 22.140625 -193.207031 22.140625 -205.125 C 22.140625 -225.070312 29.648438 -242.035156 44.671875 -256.015625 C 59.441406 -270.003906 77.441406 -277.257812 98.671875 -277.78125 C 99.453125 -277.78125 100.101562 -277.78125 100.625 -277.78125 C 113.3125 -277.78125 125.222656 -275.0625 136.359375 -269.625 C 136.617188 -269.363281 136.941406 -269.164062 137.328125 -269.03125 C 137.722656 -268.90625 138.050781 -268.710938 138.3125 -268.453125 C 145.300781 -265.085938 151.96875 -262.300781 158.3125 -260.09375 C 164.65625 -257.894531 169.382812 -257.703125 172.5 -259.515625 C 175.082031 -261.328125 176.375 -264.953125 176.375 -270.390625 C 176.375 -271.171875 176.765625 -271.5625 177.546875 -271.5625 C 178.316406 -271.5625 178.703125 -271.171875 178.703125 -270.390625 L 178.703125 -205.125 C 178.703125 -204.351562 178.316406 -203.96875 177.546875 -203.96875 C 176.765625 -203.96875 176.375 -204.351562 176.375 -205.125 C 176.375 -217.820312 172.878906 -229.609375 165.890625 -240.484375 C 158.898438 -251.359375 149.316406 -259.90625 137.140625 -266.125 C 136.878906 -266.382812 136.554688 -266.578125 136.171875 -266.703125 C 135.785156 -266.835938 135.460938 -267.03125 135.203125 -267.28125 C 124.316406 -272.46875 112.789062 -275.0625 100.625 -275.0625 C 100.101562 -275.0625 99.453125 -275.0625 98.671875 -275.0625 C 84.953125 -274.539062 73.625 -269.679688 64.6875 -260.484375 C 55.75 -251.296875 51.28125 -239.835938 51.28125 -226.109375 C 51.28125 -218.078125 53.222656 -210.5625 57.109375 -203.5625 C 60.992188 -196.570312 66.5625 -190.75 73.8125 -186.09375 Z M 152.296875 -129.765625 "/></g></g></g></g></g></svg>